PathFileType	4	(X/Y/Z)	s10c0401.trc
DataRate	CameraRate	NumFrames	NumMarkers	Units	OrigDataRate	OrigDataStartFrame	OrigNumFrames
200	200	6	50	mm	200	1500	2000
Frame#	Time	racr			lacr			c7			jug			rlel			rdr			llel			ldr			s2			lic			ric			lasi			rasi			rpsi			lpsi			rgt			lgt			rth1			rth2			rth3			rth4			rlfc			rmfc			rsh1			rsh2			rsh3			rsh4			rlmal			rmmal			rcal			rtoe			rmt5			lth1			lth2			lth4			lth3			llfc			lmfc			llmal			lmmal			lcal			lmt5			lsh1			lsh2			lsh3			lsh4			ltoe			SBIKE			LBIKE			RBIKE			
		X1	Y1	Z1	X2	Y2	Z2	X3	Y3	Z3	X4	Y4	Z4	X5	Y5	Z5	X6	Y6	Z6	X7	Y7	Z7	X8	Y8	Z8	X9	Y9	Z9	X10	Y10	Z10	X11	Y11	Z11	X12	Y12	Z12	X13	Y13	Z13	X14	Y14	Z14	X15	Y15	Z15	X16	Y16	Z16	X17	Y17	Z17	X18	Y18	Z18	X19	Y19	Z19	X20	Y20	Z20	X21	Y21	Z21	X22	Y22	Z22	X23	Y23	Z23	X24	Y24	Z24	X25	Y25	Z25	X26	Y26	Z26	X27	Y27	Z27	X28	Y28	Z28	X29	Y29	Z29	X30	Y30	Z30	X31	Y31	Z31	X32	Y32	Z32	X33	Y33	Z33	X34	Y34	Z34	X35	Y35	Z35	X36	Y36	Z36	X37	Y37	Z37	X38	Y38	Z38	X39	Y39	Z39	X40	Y40	Z40	X41	Y41	Z41	X42	Y42	Z42	X43	Y43	Z43	X44	Y44	Z44	X45	Y45	Z45	X46	Y46	Z46	X47	Y47	Z47	X48	Y48	Z48	X49	Y49	Z49	X50	Y50	Z50	
1500	7.5000	665.050321	1308.025104	-100.508647	633.822902	1280.871641	-394.582138	630.801911	1323.280171	-243.852710	612.417289	1178.165651	-226.511505	534.139075	1092.371431	29.102025	624.918949	908.436722	-31.040633	492.461781	1071.284323	-535.326925	619.057639	916.654679	-438.223463	90.394559	1157.919173	-220.974112	244.808318	1147.432712	-371.998808	277.924959	1142.794006	-73.437068	252.974532	1061.280107	-338.306701	265.677742	1060.665593	-90.423854	145.417595	1204.976069	-167.492744	140.387968	1215.354377	-275.999338	153.491618	1049.336519	-37.774544	132.078806	1039.122899	-411.637797	221.284648	909.795428	-15.347532	283.530847	847.715854	-30.416415	305.506116	765.492729	-36.013001	314.154895	868.069653	-37.243002	355.311233	667.987712	-51.091243	345.242457	664.534646	-168.435640	254.432112	611.982627	-19.114694	202.197054	542.222691	-34.045273	123.203645	506.682206	-37.081978	222.465241	522.732121	-60.135937	38.644683	449.973234	-49.938867	61.309728	442.915551	-131.253399	1.371745	488.890528	-97.206512	73.094769	255.251037	-103.495788	21.096155	320.949316	-39.408316	207.622019	934.494317	-426.048035	282.634219	891.785362	-416.726724	307.125049	916.817860	-405.232457	326.662418	814.944491	-415.566743	408.970567	723.639502	-394.449760	411.798417	718.637783	-277.886967	221.584877	391.252476	-384.141585	235.187611	396.484021	-299.506093	160.390957	359.675776	-340.397522	328.420877	302.617814	-406.081200	340.647018	618.372560	-419.126160	326.583730	533.813708	-400.547399	270.741334	464.863119	-398.492490	350.653098	527.576982	-371.685500	412.289092	329.015167	-350.465239	-217.776620	833.983864	-214.356150	-104.002694	80.519062	-418.387849	-103.987032	80.546104	-18.344262	
1501	7.5050	664.280583	1309.797930	-98.993692	634.694812	1280.671364	-392.495244	630.434611	1323.783026	-242.401586	613.142522	1179.220051	-225.887467	534.517009	1092.560466	29.484089	625.215674	908.606244	-30.154460	492.739143	1072.478713	-534.152465	619.304992	916.745961	-438.371681	89.896854	1157.105568	-221.414841	245.226063	1145.425487	-372.724204	277.846163	1142.501133	-74.203430	252.976905	1059.511375	-339.321709	265.635859	1060.425964	-92.419496	144.441513	1203.247466	-166.803703	139.041632	1214.460750	-275.823425	155.429742	1049.338786	-38.709049	130.713103	1036.768117	-411.852230	224.187173	910.856716	-16.062620	287.787211	850.072325	-31.066137	310.908910	768.170127	-36.661496	318.319737	871.106814	-37.584948	362.357130	671.548356	-52.256009	350.720882	669.366063	-169.693032	261.973332	616.147720	-19.934698	207.435043	547.857910	-34.774255	127.817136	514.071440	-37.237571	226.732045	528.559468	-61.685990	40.710163	460.572410	-49.920878	63.269902	453.059348	-131.393679	3.729930	499.673614	-97.294603	74.074242	265.747117	-103.569951	22.445894	331.864363	-39.465619	205.300583	930.765926	-426.146847	279.133121	885.856128	-416.099810	304.353532	910.989191	-406.327478	321.342518	808.215989	-415.582361	400.607812	713.633266	-393.775166	405.451251	707.759770	-278.692007	219.689994	379.546968	-383.823489	233.318676	384.438970	-299.089849	158.832590	348.017108	-340.150867	327.027627	291.465192	-405.972614	334.410776	607.700601	-418.735070	321.879909	522.832513	-399.887289	267.298537	452.884650	-398.208195	346.128249	517.167672	-370.970299	410.883763	318.163092	-350.393617	-217.740680	833.957285	-214.345806	-103.989024	80.489182	-418.383701	-104.000865	80.545430	-18.357595	
1502	7.5100	663.321669	1311.594972	-97.184426	635.672046	1280.402027	-390.158667	630.003170	1324.571558	-240.820239	614.079284	1180.689273	-225.972609	534.444659	1092.729231	29.943506	625.426092	908.841569	-29.504947	493.142015	1073.610780	-533.040307	619.596569	916.766710	-438.452432	89.593050	1155.807051	-221.871490	245.502662	1143.257247	-373.570389	277.659380	1142.066687	-75.438931	253.145268	1057.593747	-340.606295	265.932509	1060.105433	-94.484682	145.195113	1202.698710	-168.534627	140.281760	1212.070954	-278.822786	157.623653	1049.091061	-39.680544	129.344528	1034.088037	-412.139880	228.081033	912.548233	-15.926605	292.088858	852.371191	-31.632134	316.384039	770.806762	-37.246938	321.901032	873.708388	-38.917332	369.446139	675.019362	-53.313444	355.197751	673.662092	-170.966284	268.400276	620.539800	-20.715493	212.446826	553.654780	-35.673274	131.763029	521.738010	-37.255709	229.822778	534.051247	-63.673792	43.189040	471.180084	-49.978312	65.438681	463.223194	-131.404693	6.300062	510.393873	-97.469727	75.904987	276.358592	-103.761299	24.508077	342.621838	-39.556024	203.135805	926.657368	-426.378359	275.819526	879.998147	-416.322446	301.657431	904.426843	-406.616773	316.132002	801.133696	-415.508067	392.363385	704.269120	-393.259986	398.318615	696.835352	-279.502619	217.253137	368.198400	-383.692725	230.773299	372.791294	-298.501995	156.700423	336.668031	-339.837302	324.920895	280.562962	-405.855755	327.255851	598.139940	-418.194080	316.592360	513.060257	-399.760519	263.461353	442.070591	-397.860089	341.211571	507.793379	-371.128253	408.797040	307.289219	-350.304637	-217.742264	833.957328	-214.351718	-103.994402	80.477575	-418.384743	-103.978404	80.530502	-18.346987	
1503	7.5150	662.045773	1313.437564	-95.170049	636.720325	1279.910109	-387.757570	629.522879	1325.280768	-239.111500	614.872758	1181.865243	-225.592011	534.165429	1092.823693	30.494932	625.421757	908.963220	-29.243162	493.663175	1074.669249	-531.924486	619.984788	916.791789	-438.434753	89.526704	1154.056974	-222.215581	245.654365	1140.952638	-374.541674	277.529154	1141.459274	-76.592478	253.380577	1055.643705	-342.071504	266.284640	1059.816643	-96.230098	144.535302	1201.969585	-168.414626	140.193571	1210.056426	-280.338649	159.744825	1048.632456	-40.513637	127.915052	1030.869353	-412.437598	231.525939	913.737780	-16.195126	296.352386	854.618068	-32.014304	321.599849	773.386989	-37.636946	325.867878	876.432054	-39.763870	376.608074	678.365356	-54.235370	359.940197	677.706683	-172.290667	274.899883	625.226530	-21.445400	217.122616	559.389231	-36.785095	135.844767	529.309164	-37.678592	233.745552	539.938436	-65.414438	45.857613	481.804874	-50.076728	67.999028	473.611168	-131.453119	9.133518	521.060752	-97.676187	78.539661	287.031521	-103.755949	27.222987	353.369244	-39.615899	201.514038	922.243039	-427.063636	272.468819	873.667796	-416.471535	298.944163	897.579663	-407.019444	310.866546	793.917931	-415.171283	384.028918	694.944976	-392.398332	391.152745	686.351775	-280.179059	214.336596	357.315981	-383.404638	227.660200	361.297668	-297.935152	153.907339	325.772563	-339.674742	322.229869	269.815240	-405.679646	319.745884	589.265901	-418.198996	310.690306	504.171139	-400.175400	258.970149	431.948563	-397.507137	335.840395	498.988762	-371.673199	406.133577	296.529050	-350.087218	-217.768295	834.022743	-214.376376	-103.993384	80.475379	-418.381711	-103.994298	80.520909	-18.367885	
1504	7.5200	660.700232	1315.307634	-92.832616	637.717248	1279.251407	-385.208756	628.998749	1325.999364	-237.247663	611.293320	1180.939133	-217.922987	533.540922	1092.986610	31.197690	625.363967	909.016409	-29.214385	494.355781	1075.588381	-530.866508	620.165007	916.696740	-438.440252	89.547360	1152.044314	-222.602834	245.691925	1138.376476	-375.455741	277.375106	1140.805657	-77.686460	253.793954	1053.583305	-343.738385	266.571323	1059.417565	-97.834950	144.186580	1199.439029	-169.264659	141.076064	1207.515061	-282.327171	162.159208	1047.931094	-41.293694	126.473440	1027.499526	-412.661802	234.869363	914.940784	-16.334270	300.684761	856.825853	-32.405956	327.169754	775.963384	-38.002724	329.758962	879.121266	-40.739796	383.679304	681.651423	-55.253996	363.418641	681.384846	-173.287255	281.723835	629.883641	-22.261028	222.144669	565.324251	-37.535553	140.364744	537.189297	-37.816344	238.141647	546.220712	-66.714476	49.095413	492.298765	-50.098470	70.838172	483.924910	-131.466241	12.358424	531.704717	-97.861068	81.895501	297.733645	-104.003122	30.510028	363.964124	-39.705141	199.294639	917.318781	-427.463190	269.106145	866.993308	-416.706802	296.126479	890.335112	-407.851581	306.856557	787.059533	-415.669439	375.695568	686.117544	-391.613449	382.579663	676.480720	-280.445676	210.578458	346.689367	-383.144185	224.003108	350.566105	-297.465125	150.543764	315.165648	-339.469352	318.867265	259.282526	-405.509856	311.967012	580.594556	-417.986024	304.374787	495.318918	-399.951879	253.988608	422.376919	-397.045084	330.082629	490.361024	-371.919726	402.849014	285.869980	-349.981830	-217.799392	834.016067	-214.383902	-104.000469	80.480774	-418.373834	-103.988421	80.514447	-18.352876	
1505	7.5250	659.266986	1317.160995	-90.171361	638.651233	1278.668028	-382.538428	628.449415	1326.751407	-235.264094	607.367485	1180.136811	-210.211150	532.791284	1093.159533	31.859071	625.210888	909.025070	-29.395847	495.218259	1076.504993	-529.794509	620.332644	916.621880	-438.350537	89.625175	1149.895266	-223.161325	246.528474	1136.480520	-378.433562	277.215678	1140.014972	-78.654961	254.241295	1051.334018	-345.339744	266.568570	1058.567784	-100.323912	144.572697	1196.493746	-171.248948	141.131770	1205.097395	-284.022916	164.536982	1047.038175	-42.043108	125.047563	1023.668912	-412.836761	238.317585	915.914558	-16.407865	305.025973	858.979197	-32.796937	333.017778	778.539815	-38.277250	333.561221	881.702917	-41.801032	390.853498	684.968908	-56.237357	368.367933	685.024390	-174.059095	289.076465	634.586709	-23.057037	227.205167	571.709707	-38.266936	145.410471	545.377372	-37.708103	242.679796	552.485112	-67.752554	52.886658	502.609881	-50.211511	74.380028	493.892032	-131.499487	16.057858	541.812947	-97.976015	85.989187	308.313445	-104.014232	34.478819	374.414324	-39.803535	197.076540	911.917207	-427.989562	265.579325	859.987140	-416.927411	293.167381	882.836759	-408.270465	301.362616	779.209303	-414.915145	367.416263	677.776973	-390.555162	373.711773	668.878884	-279.378615	206.230721	336.421155	-382.832852	219.810264	339.865634	-297.405712	146.645360	305.026116	-339.520799	314.860021	248.817572	-405.411450	303.843800	572.413247	-417.518687	297.707701	486.742641	-399.567525	248.482081	412.971967	-396.471401	323.932858	481.976609	-372.134165	398.873382	275.314510	-349.848666	-217.796717	834.002417	-214.376610	-103.987814	80.485968	-418.379393	-103.999422	80.530699	-18.364837	
